<svg width="40" height="40" viewBox="0 0 40 40" fill="none" xmlns="http://www.w3.org/2000/svg">
<rect width="40" height="40" fill="#014ABF"/>
<path d="M27.1027 11.9417C30.207 11.9417 31.2207 14.1274 30.7772 17.6435L29.4785 28.1918C29.4468 28.4769 29.2567 28.667 28.9716 28.667H24.1251C23.84 28.667 23.6816 28.4769 23.7133 28.1918L24.9487 18.0553C25.0437 17.3901 24.8536 17.0416 24.4419 17.0416C23.9667 17.0416 23.6816 17.3901 23.5866 18.0553L22.3512 28.1918C22.3195 28.4769 22.1294 28.667 21.8444 28.667H16.9978C16.7127 28.667 16.5543 28.4769 16.586 28.1918L17.8214 18.0553C17.9164 17.3901 17.7264 17.0416 17.3146 17.0416C16.8394 17.0416 16.5543 17.3901 16.4593 18.0553L15.2239 28.1918C15.1922 28.4769 14.9705 28.667 14.7171 28.667H9.83886C9.58545 28.667 9.42706 28.4769 9.45874 28.1918L11.3593 12.6702C11.391 12.3851 11.6128 12.1951 11.8662 12.1951H16.7444C16.9978 12.1951 17.1879 12.3535 17.1245 12.6385V12.7653C17.0928 12.9236 17.1879 12.987 17.3463 12.8603C18.3599 12.0367 19.4369 11.9417 19.9754 11.9417C21.6543 11.9417 22.7313 12.5752 23.2698 13.7472C23.3332 13.8739 23.4915 13.7789 23.7133 13.5255C24.8853 12.1 26.3741 11.9417 27.1027 11.9417Z" fill="white"/>
</svg>
