<svg width="40" height="41" viewBox="0 0 40 41" fill="none" xmlns="http://www.w3.org/2000/svg">
<g clip-path="url(#clip0_370_4648)">
<rect width="40" height="40" transform="translate(0 0.5)" fill="#CDFF07"/>
<g filter="url(#filter0_d_370_4648)">
<rect x="-13.9005" y="-14.4005" width="66.801" height="66.801" rx="31.8219" stroke="#B8B7B5" stroke-width="0.198973" shape-rendering="crispEdges"/>
</g>
<path d="M20 32C26.0751 32 31 27.0751 31 21C31 14.9249 26.0751 10 20 10C13.9249 10 9 14.9249 9 21C9 27.0751 13.9249 32 20 32Z" stroke="black" stroke-width="1.83333" stroke-miterlimit="10"/>
<path d="M15.3682 16.3691L17.5875 21.7727" stroke="black" stroke-width="1.83333" stroke-miterlimit="10"/>
<path d="M24.4385 15.1133V20.6133" stroke="black" stroke-width="1.83333" stroke-miterlimit="10"/>
<path d="M13.4365 22.7376L18.7435 27.7551L24.4365 26.8867L27.6207 21.3867" stroke="black" stroke-width="1.83333" stroke-miterlimit="10"/>
</g>
<defs>
<filter id="filter0_d_370_4648" x="-23.2854" y="-21.1324" width="85.5709" height="85.5709" filterUnits="userSpaceOnUse" color-interpolation-filters="sRGB">
<feFlood flood-opacity="0" result="BackgroundImageFix"/>
<feColorMatrix in="SourceAlpha" type="matrix" values="0 0 0 0 0 0 0 0 0 0 0 0 0 0 0 0 0 0 127 0" result="hardAlpha"/>
<feOffset dy="2.65298"/>
<feGaussianBlur stdDeviation="4.64271"/>
<feComposite in2="hardAlpha" operator="out"/>
<feColorMatrix type="matrix" values="0 0 0 0 0 0 0 0 0 0 0 0 0 0 0 0 0 0 0.15 0"/>
<feBlend mode="normal" in2="BackgroundImageFix" result="effect1_dropShadow_370_4648"/>
<feBlend mode="normal" in="SourceGraphic" in2="effect1_dropShadow_370_4648" result="shape"/>
</filter>
<clipPath id="clip0_370_4648">
<rect width="40" height="40" fill="white" transform="translate(0 0.5)"/>
</clipPath>
</defs>
</svg>
