<svg width="40" height="40" viewBox="0 0 40 40" fill="none" xmlns="http://www.w3.org/2000/svg">
<rect width="40" height="40" fill="#46011E"/>
<path d="M23.9315 12.8217C23.9318 12.8214 23.9324 12.8217 23.9323 12.8221C23.8662 13.2411 23.9277 13.6465 24.1525 14.0263C24.294 14.2667 24.3946 14.5345 24.5549 14.7596C24.7579 15.046 24.9966 15.3104 25.2319 15.573C25.8663 16.2841 26.504 16.9917 27.1469 17.6943C27.3942 17.9637 27.6551 18.2212 27.9126 18.4821C28.1002 18.6714 28.1428 18.8931 28.0217 19.0926C27.9143 19.2717 27.6108 19.3706 27.3874 19.3177C26.6302 19.137 26.076 18.6441 25.5542 18.1121C24.7306 17.2697 23.9223 16.4137 23.1038 15.5696C22.9673 15.428 22.807 15.307 22.6485 15.191C22.5461 15.1143 22.4319 15.0443 22.3125 15.0017C22.0772 14.9182 21.9868 14.9795 21.9698 15.2268C21.9544 15.4468 21.9783 15.6531 22.1079 15.8492C22.3347 16.1954 22.4148 16.5927 22.3995 17.0003C22.3927 17.2117 22.3313 17.4283 22.2597 17.6312C22.0806 18.1411 21.4462 18.315 21.0336 17.9689C20.5663 17.5749 20.273 17.0651 20.1281 16.4733C20.0769 16.2687 20.0207 16.0624 20.0019 15.8543C19.9644 15.4553 19.8024 15.1091 19.5995 14.7749C19.4392 14.5106 19.3727 14.2241 19.4102 13.9138C19.4647 13.4653 19.6847 13.0697 20.3395 13.2061C20.5425 13.2487 20.7659 13.1958 20.979 13.1703C21.0251 13.1651 21.0967 13.085 21.0967 13.039C21.0967 12.8036 21.0881 12.5666 21.0592 12.333C21.0455 12.2255 20.9739 12.1676 20.8358 12.2187C20.6004 12.304 20.36 12.3841 20.1144 12.4302C19.8706 12.4762 19.6677 12.5683 19.4886 12.7422C18.9566 13.2606 18.3256 13.6375 17.6572 13.9496C17.5224 14.0127 17.3758 14.0638 17.2291 14.0792C16.6818 14.1371 16.1344 14.1781 15.5853 14.2241C15.0311 14.2702 14.5758 14.0655 14.2432 13.6324C14.1222 13.4755 14.0386 13.2572 14.0215 13.0611C13.9926 12.7405 14.2807 12.5376 14.5962 12.6109C14.6167 12.6161 14.6389 12.6161 14.6559 12.6246C15.3806 13.0151 16.0713 12.7081 16.7397 12.4728C17.2871 12.2801 17.8038 12.0056 18.3069 11.6935C18.7076 11.4428 19.2021 11.3456 19.6455 11.1581C19.9763 11.0182 20.3003 10.8545 20.6107 10.6755C20.6925 10.6277 20.7505 10.4811 20.7607 10.3753C20.8 9.98313 20.7965 9.5858 20.8443 9.1953C20.9568 8.27446 21.8402 7.48322 22.7303 7.50027C22.9332 7.50368 23.143 7.52414 23.334 7.58383C23.8984 7.76288 24.2105 8.40747 23.9939 8.99067C23.8899 9.27033 23.7142 9.53294 23.5335 9.77509C23.276 10.1196 23.2317 10.1502 23.5591 10.4214C23.8728 10.6806 24.2412 10.8937 24.6146 11.0609C25.6497 11.5247 26.5757 12.1539 27.4505 12.865C28.5197 13.7347 29.2904 14.8261 29.7935 16.105C29.8992 16.3727 29.9504 16.666 29.9913 16.9542C30.0305 17.2424 29.8975 17.4607 29.6861 17.5425C29.4763 17.6227 29.2376 17.5443 29.0671 17.3038C28.6953 16.7769 28.2673 16.2926 27.9842 15.6992C27.8103 15.3342 27.5408 15.0136 27.3055 14.6794C27.2612 14.6163 27.181 14.5788 27.1162 14.5311C26.8332 14.3213 26.5399 14.1235 26.2687 13.8984C25.9601 13.6426 25.677 13.3544 25.3718 13.0935C25.2848 13.0202 25.1603 12.9673 25.0461 12.9503C24.6763 12.8958 24.3049 12.8634 23.9318 12.8225C23.9314 12.8225 23.9312 12.822 23.9315 12.8217Z" fill="#FDF9F3"/>
<path d="M12.7066 19.9875C12.7076 19.988 12.7088 19.988 12.7099 19.9876C13.0022 19.8716 13.1721 19.6807 13.2096 19.3693C13.2539 18.9907 13.392 18.6445 13.6001 18.3256C13.8252 17.9778 14.1287 17.7697 14.5584 17.8413C15.0001 17.9147 15.3292 18.1653 15.4247 18.6053C15.5782 19.3113 15.5424 20.0155 15.2064 20.6755C15.0581 20.9671 14.8807 21.2433 14.7272 21.5315C14.4868 21.9783 14.4459 22.4114 14.7835 22.8446C15.3923 23.6239 15.9925 24.4117 16.8077 24.9881C17.1811 25.2524 17.5853 25.4741 17.9826 25.7043C18.1667 25.8117 18.2162 25.9925 18.0747 26.1647C17.9178 26.3557 17.7012 26.4137 17.4676 26.3813C16.8793 26.2994 16.3404 26.0846 15.8612 25.7282C15.834 25.7077 15.8067 25.6855 15.776 25.6719C14.937 25.2592 14.2668 24.6317 13.6205 23.9752C13.5642 23.9172 13.4994 23.866 13.4364 23.8132C13.3922 23.777 13.3265 23.8293 13.3286 23.8863C13.3358 24.083 13.3324 24.2654 13.3733 24.4373C13.5199 25.0716 13.6666 25.706 13.8593 26.3284C14.1594 27.3021 14.4953 28.2656 14.8176 29.2325C14.9643 29.6707 15.1297 30.1022 15.2559 30.5455C15.3173 30.7604 15.3377 31.0008 15.3156 31.2225C15.2866 31.5295 15.0905 31.6642 14.7869 31.6676C14.3401 31.6744 14.0673 31.422 13.8286 31.0776C13.1754 30.138 12.7543 29.0978 12.4234 28.0115C12.1608 27.1487 11.9869 26.2704 11.8948 25.3735C11.8754 25.1876 11.8483 25.0047 11.8238 24.8191C11.8214 24.8011 11.8072 24.787 11.7892 24.7848C11.7681 24.7821 11.7487 24.7965 11.745 24.8174C11.682 25.1698 11.5922 25.5207 11.5708 25.8748C11.5213 26.6882 11.5128 27.5051 11.4787 28.3202C11.4702 28.5436 11.4378 28.7669 11.3952 28.9852C11.3662 29.1302 11.3133 29.3126 11.1377 29.3075C11.0166 29.3041 10.8648 29.2188 10.783 29.1216C10.4385 28.7141 10.2219 28.2417 10.135 27.7114C9.90476 26.2875 9.97127 24.879 10.3174 23.4772C10.4675 22.8702 10.5664 22.2511 10.696 21.639C10.8375 20.9688 10.9995 20.3037 11.1308 19.6319C11.2229 19.168 11.2332 18.6837 11.3593 18.2301C11.6765 17.0996 12.1352 16.0287 12.8156 15.0601C12.9418 14.8793 13.022 14.6661 13.1192 14.4666C13.184 14.3319 13.2283 14.187 13.2965 14.0557C13.4585 13.7453 13.7842 13.7351 13.9752 14.0284C14.3026 14.5297 14.3555 15.072 14.2481 15.6501C14.1185 16.3407 13.8541 16.9751 13.5216 17.5873C13.172 18.2301 12.9197 18.9105 12.7389 19.6199C12.715 19.712 12.7065 19.8075 12.6946 19.9013C12.6912 19.9247 12.6994 19.9498 12.7045 19.9845C12.7047 19.9858 12.7055 19.9869 12.7066 19.9875Z" fill="#FDF9F3"/>
<path d="M25.697 27.5115C25.697 27.5116 25.697 27.5117 25.6969 27.5117C25.5281 27.6481 25.3815 27.7538 25.2468 27.8748C24.4828 28.5689 23.84 29.3721 23.1527 30.136C22.5627 30.7908 21.9983 31.4815 21.2718 32.0016C20.8165 32.3273 20.3186 32.5132 19.7507 32.4808C19.6774 32.4756 19.6024 32.4671 19.5308 32.4484C19.0806 32.3273 19.0004 32.1005 19.2767 31.7287C19.6757 31.1916 20.1413 30.7192 20.6341 30.2639C21.5481 29.4198 22.4434 28.5484 23.0999 27.4724C23.1287 27.4253 23.1557 27.3777 23.1794 27.3266C23.2034 27.2746 23.1436 27.2294 23.0982 27.2644C22.4536 27.7555 21.7408 28.1187 20.9751 28.3813C20.6767 28.4836 20.3749 28.487 20.0696 28.4171C19.6177 28.3131 19.1727 28.2057 18.7651 27.9635C18.4923 27.8015 18.3217 27.5662 18.1631 27.3121C18.0847 27.1859 18.1325 27.041 18.2586 26.9762C18.4241 26.8909 18.6099 26.7903 18.7856 26.7903C19.7337 26.7903 20.6596 26.6283 21.5651 26.3844C22.2336 26.2037 22.8611 25.8814 23.4222 25.467C23.7428 25.2317 23.8809 24.8531 23.9082 24.466C23.9337 24.1199 23.9082 23.7652 23.8638 23.419C23.7717 22.7181 23.9679 22.1196 24.476 21.6404C24.8546 21.284 25.8419 21.3283 26.2103 21.695C26.4644 21.9474 26.565 22.2645 26.5053 22.6124C26.4908 22.6963 26.4744 22.7799 26.4571 22.8638C26.3954 23.1619 26.7679 23.3853 26.9401 23.1342C27.3085 22.5971 27.6308 22.0258 27.9616 21.4631C28.127 21.1817 28.2515 20.8748 28.4254 20.6002C28.5192 20.4536 28.6641 20.3257 28.8142 20.2353C29.087 20.0699 29.3258 20.1364 29.452 20.428C29.6344 20.8458 29.7726 21.2874 29.6788 21.753C29.4571 22.8546 29.0018 23.8368 28.127 24.5752C27.8695 24.7934 27.5506 24.9401 27.2931 25.1584C27.2022 25.2353 27.1232 25.3268 27.0445 25.4266C26.9155 25.5905 26.996 25.8367 27.1942 25.9019C27.5625 26.0212 27.699 26.1798 27.6666 26.5567C27.641 26.8568 27.6001 27.1791 27.4688 27.4417C27.0919 28.1954 26.6809 28.9321 26.2529 29.6585C26.0858 29.9433 25.8402 30.1821 25.6288 30.4378C25.5861 30.489 25.5316 30.5333 25.477 30.5743C25.3525 30.6664 25.2195 30.7005 25.078 30.6135C24.9416 30.5316 24.9023 30.3969 24.9399 30.2588C25.0285 29.9331 25.1189 29.604 25.24 29.2885C25.3611 28.9713 25.5401 28.6763 25.6544 28.3574C25.726 28.1579 25.7328 27.9345 25.7584 27.7197C25.7652 27.6671 25.7281 27.6111 25.6975 27.5115C25.6974 27.5112 25.697 27.5112 25.697 27.5115Z" fill="#FDF9F3"/>
</svg>
